HIERARCHY
ROOT Hips
{
	OFFSET 0.00 0.00 0.00
	CHANNELS 6 Xposition Yposition Zposition Xrotation Yrotation Zrotation
	JOINT LeftUpLeg
	{
		OFFSET 3.25772 0.00000 0.00000
		CHANNELS 3 Xrotation Yrotation Zrotation
		JOINT LeftLeg
		{
			OFFSET 0.00000 -15.35355 0.00000
			CHANNELS 3 Xrotation Yrotation Zrotation
			JOINT LeftFoot
			{
				OFFSET 0.00000 -16.48949 0.00000
				CHANNELS 3 Xrotation Yrotation Zrotation
				JOINT LeftToeBase
				{
					OFFSET 0.00000 -1.72224 6.42750
					CHANNELS 3 Xrotation Yrotation Zrotation
					End Site
					{
						OFFSET 0.00000 0.00000 2.95275
					}
				}
			}
		}
	}
	JOINT RightUpLeg
	{
		OFFSET -3.25772 0.00000 0.00000
		CHANNELS 3 Xrotation Yrotation Zrotation
		JOINT RightLeg
		{
			OFFSET 0.00000 -15.35355 0.00000
			CHANNELS 3 Xrotation Yrotation Zrotation
			JOINT RightFoot
			{
				OFFSET 0.00000 -16.48949 0.00000
				CHANNELS 3 Xrotation Yrotation Zrotation
				JOINT RightToeBase
				{
					OFFSET 0.00000 -1.72224 6.42750
					CHANNELS 3 Xrotation Yrotation Zrotation
					End Site
					{
						OFFSET 0.00000 0.00000 2.95275
					}
				}
			}
		}
	}
	JOINT Spine
	{
		OFFSET 0.00000 0.03937 0.00000
		CHANNELS 3 Xrotation Yrotation Zrotation
		JOINT Spine1
		{
			OFFSET 0.00000 10.14986 0.00000
			CHANNELS 3 Xrotation Yrotation Zrotation
			JOINT Neck
			{
				OFFSET 0.00000 9.84250 0.00000
				CHANNELS 3 Xrotation Yrotation Zrotation
				JOINT Head
				{
					OFFSET 0.00000 4.54023 0.00000
					CHANNELS 3 Xrotation Yrotation Zrotation
					End Site
					{
						OFFSET 0.00000 4.52755 0.00000
					}
				}
			}
			JOINT LeftShoulder
			{
				OFFSET 0.00000 9.84250 0.00000
				CHANNELS 3 Xrotation Yrotation Zrotation
				JOINT LeftArm
				{
					OFFSET 7.21510 -0.00003 0.00000
					CHANNELS 3 Xrotation Yrotation Zrotation
					JOINT LeftForeArm
					{
						OFFSET 10.66411 -0.00004 0.00000
						CHANNELS 3 Xrotation Yrotation Zrotation
						JOINT LeftHand
						{
							OFFSET 8.93656 -0.00003 0.00000
							CHANNELS 3 Xrotation Yrotation Zrotation
							JOINT L_Wrist_End
							{
								OFFSET 3.93700 -0.00001 0.00000
								CHANNELS 3 Xrotation Yrotation Zrotation
							}
						}
					}
				}
			}
			JOINT RightShoulder
			{
				OFFSET 0.00000 9.84250 0.00000
				CHANNELS 3 Xrotation Yrotation Zrotation
				JOINT RightArm
				{
					OFFSET -7.21510 -0.00003 0.00000
					CHANNELS 3 Xrotation Yrotation Zrotation
					JOINT RightForeArm
					{
						OFFSET -10.66411 -0.00004 0.00000
						CHANNELS 3 Xrotation Yrotation Zrotation
						JOINT RightHand
						{
							OFFSET -8.93656 -0.00003 0.00000
							CHANNELS 3 Xrotation Yrotation Zrotation
							JOINT R_Wrist_End
							{
								OFFSET -5.41338 -0.00002 0.00000
								CHANNELS 3 Xrotation Yrotation Zrotation
							}
						}
					}
				}
			}
		}
	}
}
MOTION
Frames: 8
Frame Time: 0.008333
 3.5715 34.1478 43.2290 -1.3941 0.5188 -3.7136 10.9913 13.6886 5.2307 4.5688 -0.0000 0.0000 -1.6758 -12.2176 2.2720 -38.2753 0.0000 -0.0000 -19.9833 -7.2833 -0.6464 47.9181 -0.0000 0.0000 0.4675 -12.0204 2.8640 -35.3289 0.0000 0.0000 -14.4253 -4.6645 -5.4438 26.9761 1.0813 3.7148 -16.0610 2.2939 6.9789 -9.9528 -23.1783 -10.3742 15.1199 6.6355 7.3046 -16.7330 -43.1898 -74.9265 -0.0002 -47.0041 -0.0001 1.8286 2.4140 23.6096 -0.0000 0.0000 -0.0000 16.0281 -5.4647 -5.3497 -3.4516 33.3453 70.6445 -0.0002 41.7464 0.0001 -17.8396 -13.0502 -16.5110 -0.0000 -0.0000 0.0000
 3.6038 34.1655 43.4798 -1.2084 0.4242 -3.6485 11.5275 14.2157 5.0728 3.9315 -0.0000 0.0000 -1.2027 -12.7276 2.0029 -38.5044 0.0000 0.0000 -20.0907 -7.4659 -0.5608 45.0061 -0.0000 0.0000 0.4992 -11.8444 2.9810 -35.5334 0.0000 0.0000 -14.3958 -4.8583 -5.5497 26.6959 0.9869 3.8654 -16.2096 2.4325 7.1669 -9.3464 -22.9044 -10.2249 15.0079 6.5708 7.5321 -16.5987 -43.4798 -74.5145 -0.0002 -48.0229 -0.0001 2.1033 2.4803 23.6463 -0.0000 -0.0000 0.0000 16.6394 -5.5916 -5.1011 -3.5647 32.8444 70.4284 -0.0002 41.4462 0.0001 -16.9512 -13.5588 -16.0132 -0.0000 0.0000 -0.0000
 3.6258 34.1852 43.7661 -1.0242 0.4255 -3.6399 12.0458 14.0215 5.0022 3.5330 0.0000 0.0000 -0.7048 -12.5963 1.6374 -39.1178 0.0000 0.0000 -19.8814 -7.6992 -0.3728 41.7202 -0.0000 0.0000 0.3164 -11.7120 2.6985 -35.4935 0.0000 0.0000 -14.6467 -5.0875 -5.6840 26.8604 0.8972 4.1114 -16.4435 2.5970 7.5176 -9.1430 -22.5202 -10.5633 14.8159 6.4702 7.7900 -16.4432 -43.7584 -74.0411 -0.0002 -49.0674 -0.0001 2.4742 2.4932 23.7430 -0.0000 0.0000 -0.0000 16.7083 -5.7525 -5.0138 -3.3529 32.5440 70.3056 -0.0002 41.0426 0.0001 -16.1090 -13.6498 -15.6434 -0.0000 0.0000 -0.0000
 3.6783 34.1792 43.9814 -0.8664 1.0364 -3.5865 12.1545 13.3738 5.0401 3.6658 -0.0000 0.0000 -0.6488 -12.8342 1.6542 -39.4363 0.0000 -0.0000 -19.8262 -8.5970 -0.5675 38.5850 -0.0000 0.0000 0.4428 -11.4592 2.7015 -36.0035 0.0000 0.0000 -14.4843 -5.6134 -5.7979 26.7478 0.4992 4.3465 -16.5623 2.7110 7.7496 -9.0361 -22.2589 -10.7670 14.3837 6.2405 8.0772 -16.0282 -43.9312 -73.4941 -0.0003 -50.1073 -0.0001 2.9792 2.7340 24.0075 -0.0000 -0.0000 0.0000 16.4274 -5.9538 -5.0053 -3.0906 32.2526 70.3994 -0.0002 40.5488 0.0001 -16.2037 -13.8844 -15.9264 -0.0000 -0.0000 0.0000
 3.7027 34.1746 44.2639 -0.6648 0.9813 -3.4719 12.6029 13.6074 4.9011 3.3447 -0.0000 0.0000 -0.3431 -13.2161 1.8310 -39.8068 0.0000 0.0000 -19.6685 -8.8950 -0.4832 35.2960 -0.0000 0.0000 0.4677 -11.4307 2.8023 -35.8318 0.0000 -0.0000 -14.5814 -5.8214 -5.9373 26.5757 0.3841 4.4946 -16.6950 2.8530 7.9576 -8.5839 -21.9531 -10.7773 14.3328 6.1598 8.1682 -15.6245 -43.9600 -72.7982 -0.0003 -51.1572 -0.0001 3.2526 2.4732 23.7073 -0.0000 0.0000 -0.0000 16.7544 -6.0133 -4.8017 -2.8857 31.8486 70.1651 -0.0002 40.2260 0.0001 -17.2167 -13.1661 -16.7133 -0.0000 0.0000 -0.0000
 3.7068 34.1582 44.5583 -0.4848 0.7286 -3.4196 13.0065 13.9087 4.8199 3.2261 0.0000 0.0000 -0.2253 -13.4597 1.9631 -40.1903 0.0000 0.0000 -19.3258 -8.7316 -0.1574 31.8163 -0.0000 0.0000 0.4338 -11.3305 3.3719 -35.8485 0.0000 -0.0000 -14.8389 -5.9222 -6.0598 26.6557 0.4026 4.6739 -16.7481 2.8180 8.0274 -8.1996 -21.6447 -10.6231 14.3357 6.0969 8.4046 -15.4561 -44.0203 -72.2153 -0.0003 -52.2198 -0.0001 3.2763 2.4316 23.4503 -0.0000 0.0000 -0.0000 16.9343 -6.0319 -4.7536 -2.7787 31.2443 70.1413 -0.0002 39.9436 0.0001 -17.2050 -13.1455 -16.5063 -0.0000 0.0000 -0.0000
 3.7223 34.1233 44.8371 -0.2756 0.7443 -3.3360 13.3414 14.1688 4.7387 3.0862 -0.0000 0.0000 -0.2064 -13.8314 1.9274 -40.5224 0.0000 -0.0000 -19.1450 -8.8515 -0.0189 28.6400 -0.0000 0.0000 0.4644 -11.1150 3.7183 -36.0491 0.0000 -0.0000 -14.9124 -6.1372 -6.1535 26.4543 0.2533 4.7951 -16.7273 3.2017 8.3664 -8.0315 -21.4228 -10.8393 14.3514 6.0392 8.6066 -15.2368 -43.9846 -71.6422 -0.0003 -53.0852 -0.0001 3.7081 2.2727 23.1633 -0.0000 -0.0000 0.0000 17.0911 -6.2354 -4.5876 -2.7348 30.7965 70.0996 -0.0002 39.5347 0.0001 -15.7461 -13.5522 -15.5709 -0.0000 0.0000 -0.0000
 3.7326 34.0889 45.1276 -0.1165 0.5786 -3.2492 13.7857 13.9574 4.6044 3.0327 0.0000 -0.0000 -0.1777 -13.6332 1.9667 -40.8534 0.0000 -0.0000 -18.8116 -8.7950 0.2154 25.3216 -0.0000 0.0000 0.4302 -10.8906 4.2577 -35.9628 0.0000 -0.0000 -15.2043 -6.2541 -6.3080 26.6869 0.2884 5.0203 -16.8820 3.2181 8.4834 -7.7460 -21.0215 -10.9440 14.2683 5.9661 8.8191 -15.1275 -44.0667 -71.1404 -0.0003 -54.1343 -0.0001 3.6405 2.8190 23.2500 -0.0000 -0.0000 0.0000 16.8092 -6.5778 -4.6293 -2.5147 30.6679 70.1449 -0.0002 39.0490 0.0001 -15.4686 -13.6278 -15.2870 -0.0000 0.0000 -0.0000
